<?xml version="1.0" encoding="UTF-8"?>
<svg width="24px" height="24px" viewBox="0 0 24 24" version="1.1" xmlns="http://www.w3.org/2000/svg" xmlns:xlink="http://www.w3.org/1999/xlink">
    <!-- Generator: Sketch 43.1 (39012) - http://www.bohemiancoding.com/sketch -->
    <title>Icons/System/LogOut</title>
    <desc>Created with Sketch.</desc>
    <defs>
        <path d="M2.35495317,8.5 L11.613259,8.5 C11.8894014,8.5 12.113259,8.72385763 12.113259,9 C12.113259,9.27614237 11.8894014,9.5 11.613259,9.5 L2.2903285,9.5 L5.26613828,12.1250388 C5.47322361,12.3077142 5.49301182,12.6236776 5.31033649,12.8307629 C5.12766116,13.0378483 4.81169771,13.0576365 4.60461238,12.8749612 L0.244171688,9.02850355 L0.574734567,8.73690547 C0.626495618,8.65341814 0.70215365,8.58630283 0.792155565,8.54511278 L4.66923705,5.12503884 C4.87632238,4.94236351 5.19228583,4.96215172 5.37496116,5.16923705 C5.55763649,5.37632238 5.53784828,5.69228583 5.33076295,5.87496116 L2.35495317,8.5 Z M13.5127899,2.34812152 L8,1.5 C7.72385763,1.5 7.5,1.27614237 7.5,1 C7.5,0.723857625 7.72385763,0.5 8,0.5 L15.4915594,0.5 C16.0430031,0.5 16.5,0.947697432 16.5,1.4999602 L16.5,16.5000398 C16.5,17.0452911 16.0485058,17.5 15.4915594,17.5 L8,17.5 C7.72385763,17.5 7.5,17.2761424 7.5,17 C7.5,16.7238576 7.72385763,16.5 8,16.5 L13.5127899,15.6518785 C14.0532287,15.568734 14.5,15.0529553 14.5,14.5014977 L14.5,3.49850233 C14.5,2.94748943 14.058011,2.43200169 13.5127899,2.34812152 Z" id="path-1"></path>
    </defs>
    <g id="Symbols" stroke="none" stroke-width="1" fill="none" fill-rule="evenodd">
        <g id="Icons/System/LogOut">
            <g id="Path-4-+-Path-5-+-Color/Rood-Mask" transform="translate(4.000000, 3.000000)">
                <mask id="mask-2" fill="white">
                    <use xlink:href="#path-1"></use>
                </mask>
                <use id="Mask" fill="#000000" fill-rule="nonzero" xlink:href="#path-1"></use>
                <g id="Color/Rood" mask="url(#mask-2)" fill="#EC0000">
                    <g transform="translate(-17.000000, -16.000000)" id="Rectangle">
                        <rect x="0" y="0" width="50" height="50"></rect>
                    </g>
                </g>
            </g>
        </g>
    </g>
</svg>