<?xml version="1.0" encoding="UTF-8"?>
<svg width="24px" height="24px" viewBox="0 0 24 24" version="1.1" xmlns="http://www.w3.org/2000/svg" xmlns:xlink="http://www.w3.org/1999/xlink">
    <!-- Generator: Sketch 43.1 (39012) - http://www.bohemiancoding.com/sketch -->
    <title>Icons/System/department</title>
    <desc>Created with Sketch.</desc>
    <defs>
        <path d="M1.8902983,14.9333333 C0.782239239,14.9333333 -0.0159527956,14.0474875 0.188129785,12.9520068 C0.188129785,12.9520068 0.317908107,7.46666667 5.21731322,7.46666667 C10.1167183,7.46666667 10.2508913,12.9715546 10.2508913,12.9715546 C10.4164416,14.0550151 9.65955918,14.9333333 8.54432815,14.9333333 L1.8902983,14.9333333 Z" id="path-1"></path>
    </defs>
    <g id="Symbols" stroke="none" stroke-width="1" fill="none" fill-rule="evenodd">
        <g id="Icons/System/department">
            <g id="Group-4" transform="translate(4.000000, 5.000000)">
                <g id="Group-2" fill="#EC0000">
                    <circle id="Oval-9-Copy" cx="4.26666667" cy="2.56" r="2.56"></circle>
                    <path d="M1.90787145,11.9466667 C0.802922233,11.9466667 0.0140846206,11.0652808 0.245079218,9.9742193 C0.245079218,9.9742193 0.254326486,5.97333333 4.17385058,5.97333333 C8.09337467,5.97333333 8.10696678,9.99077393 8.10696678,9.99077393 C8.29118161,11.0709837 7.54342951,11.9466667 6.43982971,11.9466667 L1.90787145,11.9466667 Z" id="Path-7-Copy"></path>
                </g>
                <g id="Group-3" transform="translate(5.333333, 0.000000)">
                    <ellipse id="Oval-9" fill="#EC0000" cx="5.33333333" cy="3.2" rx="3.2" ry="3.2"></ellipse>
                    <g id="Path-7">
                        <use fill="#EC0000" fill-rule="evenodd" xlink:href="#path-1"></use>
                        <path stroke="#FFFFFF" stroke-width="1" d="M1.8902983,15.4333333 L8.54432815,15.4333333 C9.96215949,15.4333333 10.957508,14.2857998 10.7451548,12.8960323 C10.7459884,12.7643026 10.7174075,12.4393193 10.6460793,12.0263214 C10.5275531,11.3400423 10.3273458,10.6529333 10.0239993,10.0066605 C9.13912834,8.12146314 7.56931143,6.96666667 5.21731322,6.96666667 C2.86569244,6.96666667 1.29660363,8.11750462 0.41297628,9.99656356 C0.110011379,10.6408271 -0.0897323,11.3257872 -0.207760215,12.0099168 C-0.278791075,12.4216357 -0.307127637,12.7456384 -0.311730335,12.9401806 C-0.563602436,14.2570862 0.462161503,15.4333333 1.8902983,15.4333333 Z"></path>
                    </g>
                </g>
            </g>
        </g>
    </g>
</svg>