<svg xmlns="http://www.w3.org/2000/svg" viewBox="0 0 304 276.64">
  <polygon fill="#eb0000" points="105.02 187.29 112.94 169.26 113.29 155.76 122.2 158.96 129.06 162.05 131.67 146.64 134.43 146.22 137.82 159.58 148.43 149.19 156.84 152.51 162.78 151.31 163.91 145.16 169.42 137.73 177.48 139.64 198.06 137.31 199.47 145.72 211.56 129.6 225.06 153.29 239.41 124.58 256.17 144.1 270.59 116.31 287.4 137.89 288.76 212.6 166.35 214.51 112.32 213.55 105.59 203.69 105.02 187.29" />
  <path fill="#ebc7c7" d="M87.53,203.48s-9.76,4.88-4.74,8.34,18.95,5.8,24,6.65S304.59,241.4,304.59,241.4l0,35.25H-.93V210.93s28.94-6.25,70.5-7.45C75.09,203.32,87.53,203.48,87.53,203.48Z" />
  <path fill="#eb0000" d="M294.41,224.05c-8.35.76-11.86,10.35-13.34,18.26l21.83,3.42.67-6.55C303,232.6,300.4,223.51,294.41,224.05Z" />
  <path fill="#eb0000" d="M179,241.87c-12.84,1.9-22.22,12.61-28,21.64l56.82,11.85S213.6,236.75,179,241.87Z" />
  <polygon fill="#eb0000" points="108.92 165.94 112.7 165.94 112.7 168.13 108.92 171.91 108.92 165.94" />
  <polygon fill="#eb0000" points="103.37 174.42 106.48 174.42 106.48 177.25 103.37 178.74 103.37 174.42" />
  <polygon fill="#eb0000" points="218.81 128.68 232.15 132.44 232.15 149.12 218.81 149.12 218.81 128.68" />
  <polygon fill="#eb0000" points="289.14 214.13 304.49 213.6 304.49 138.26 297.8 127.98 297.8 120.55 294.94 119.18 288.37 120.24 288.37 122.99 276.28 117.73 280.93 137.66 286.72 143.56 289.14 214.13" />
  <polygon fill="#eb0000" points="171.38 132.02 183.36 134.76 183.36 128.29 185.8 127.61 188.93 128.19 189.36 131.47 184.91 137.31 177.2 138.47 177.2 142.15 172.12 142.5 171.38 132.02" />
  <path fill="#eb0000" d="M136.59,144h12.1l1.73-1.73,17.64-5-.85,11.77S137,159.94,137.31,159.8s-2.76-12.58-2.76-12.58Z" />
  <polygon fill="#eb0000" points="244.93 120.6 245.78 120.87 244.93 120.87 244.93 122.57 261.75 128.54 258.49 143.56 244.6 133.97 241.42 120.82 244.93 120.6" />
  <polygon fill="#eb0000" points="114.25 142.26 150.58 142.26 149.25 144.87 131.5 154.28 127.37 161.7 114.53 156.05 114.25 142.26" />
  <path fill="#eb0000" d="M82.79,211.82c5,3.46,18.95,5.8,24,6.65.6.1,3.93.51,9.3,1.15,28.12-3.29,64.63-6.75,82.2-5.89,29,1.41,60.83,1.94,60.83,1.94l45.47-1h0V213.6l-15.34.53-140.33-2a173.72,173.72,0,0,1-24.41-1.67l-1.94-.31c-1.47-.25-2.92-.52-4.35-.83l-.58-.13c-13.36-3-16.93-6.5-16.93-6.5V201.5H96.51s-6.22.81-9,2C87.53,203.48,77.78,208.36,82.79,211.82Z" />
  <path fill="#eb0000" d="M252.84,225.75c-13.93,1.11-21.85,10.66-26.36,20.74l48.41,8S274,224.05,252.84,225.75Z" />
  <path fill="#eb0000" d="M260.79,214.35s-33.66.85-62.65-.57S88.57,222.69,79.24,224.67-1,232.16-1,232.16l.11,44.54H30.44S119.89,244,138.18,241.07c23.54-3.82,99.25-30.24,166.39-23.48,0,.34,0-4.66,0-4.66Z" />
  <path fill="#be0000" d="M265,217q2.43-.14,4.86-.25Q267.45,216.85,265,217Z" />
  <path fill="#be0000" d="M253.3,217.89q2.4-.23,4.81-.42Q255.7,217.67,253.3,217.89Z" />
  <path fill="#be0000" d="M270.74,216.71q2.49-.1,5-.16Q273.23,216.61,270.74,216.71Z" />
  <path fill="#be0000" d="M199.22,226.58h0l4.71-1Z" />
  <path fill="#be0000" d="M259.18,217.39q2.38-.18,4.77-.33Q261.56,217.21,259.18,217.39Z" />
  <path fill="#be0000" d="M276.13,216.55q2.48-.05,5-.05Q278.61,216.5,276.13,216.55Z" />
  <path fill="#be0000" d="M286.8,216.55q-2.43,0-4.86-.05Q284.37,216.49,286.8,216.55Z" />
  <path fill="#be0000" d="M204.42,225.48l4.53-.92Z" />
  <path fill="#be0000" d="M215.07,223.38l4.63-.85Z" />
  <path fill="#be0000" d="M220.25,222.44l4.44-.76Z" />
  <path fill="#be0000" d="M247.76,218.46q2.34-.26,4.69-.48Q250.1,218.2,247.76,218.46Z" />
  <path fill="#be0000" d="M225.45,221.55l4.59-.73Z" />
  <path fill="#be0000" d="M209.74,224.4l4.49-.87Z" />
  <path fill="#be0000" d="M242.38,219.09q2.43-.3,4.87-.58Q244.81,218.78,242.38,219.09Z" />
  <path fill="#be0000" d="M231.11,220.65l4.54-.67Z" />
  <path fill="#be0000" d="M236.77,219.83l4.63-.62Z" />
  <polygon fill="#fffdfd" points="289.22 133.49 304.56 138.26 304.56 138.77 289.22 134.02 289.22 133.49" />
  <polygon fill="#eb0000" points="184.91 137.31 189.72 131 204.74 134.5 204.74 143.69 199.78 144.33 199.78 135.07 184.91 137.31" />
  <path fill="#fffdfd" d="M275.17,112.26l1.77-.22L268.37,110l-6.78,4.67,2-.36s.89,17.77-8.37,23.54v3.36L244,124.3v-3.54l1-.16-6-3.42-5.21,5.3,1.58-.26v3.65L225.63,146v-5l-6.83.88V123.24s-2.1-2.92-7.7-2-6.36,4.42-6.36,4.42v18l-5,.64v-9.26l-22.58,3.4v3.68s-3.49.46-4-8c0,0-.28-3.77-3.34-3.13s-2.44,4.19-2.44,4.19a8.53,8.53,0,0,1-5.12,8.9c.09,2.69.25,5.31.25,5.31l-5.9,1.44-8.38-4.19-6.52,7.81-2.11.53v1.66s-2.37,1.2-2.79-3.43a82.49,82.49,0,0,1-.25-9.3l-7.1,2.65.46,7.78s.55,4.67-3.53,6.13v-9.63l-10.6,5-1.56-13.68L112.7,158.8v9.33l-3.78,3.78v-6l-2.44,1.63v9.69l-3.11,1.48v-4.31L100.68,176v29.41l14.42,4V201l.37-.05v8.56h-.1l2.25.63v-9l1.31-.1v9.45l1.2.33V201l1.87-.16v10.56l1.18.33v-.67h0V200.73l1.31-.11v10.09h0v1.37l1.08.3,71.9,4.48,91.76-2.74V133.49S278.63,133,275.17,112.26ZM113.72,208.77l-.37,0V201.2l.37,0Zm0-9.87-.37,0v-7.68l.37-.05Zm0-11-.37.06v-6.08l.37-.08Zm0-9.2-.37.08v-4.62l.37-.08Zm0-8.29-.37.09v-5l.37-.1Zm0-7.24-.37.11v-5.8l.37-.11Zm.85,45.7-.37,0v-7.8l.37-.05Zm0-10.07-.37.05v-7.73l.37-.05Zm0-11-.37.06v-6.1l.37-.1Zm0-9.24-.37.08V174l.37-.08Zm0-8.33-.37.11v-5l.37-.1Zm0-7.26-.37.1v-5.82l.37-.11Zm0-8.15-.37.17v-5.78l.37-.19Zm.87,43.89-.37.07V191l.37-.07Zm0-11.06-.37.06v-6.11l.37-.07Zm0-9.28-.37.08v-4.66l.37-.08Zm0-8.37-.37.09v-5l.37-.1Zm0-7.29-.37.1v-5.84l.37-.11Zm2.79,35-1.31.16v-8l1.31-.26Zm0-10.62-1.31.19V182l1.31-.23Zm0-11-1.31.26v-5l1.31-.29Zm0-10.11-1.31.32V162.9l1.31-.35Zm3.08,31.43-1.87.17v-8.19l1.87-.32Zm0-10.82-1.87.28v-5.41l1.87-.32Zm0-11.12-1.87.37v-5.09l1.87-.43Zm0-8-1.87.46v-7.11l1.87-.5Zm2.49,29.65-1.31.14V189l1.31-.26Zm0-10.91-1.31.21V181l1.31-.24Zm0-11.25-1.31.28v-5.18l1.31-.29Zm0-10.35-1.31.32v-3.59l1.31-.35Zm6.65,42h-2.55l.13-8.93,2.42,0Zm0-9.9-2.55.11v-5.5l2.55-.17Zm0-8.44-2.55.21v-7.85l2.55-.29Zm0-11.12-2.55.32v-6.59l2.55-.4Zm0-9.86-2.55.49v-4.91l2.55-.48Zm4.06,37.37-2.55,0V191.11l2.55-.16Zm0-16.72-2.55.23v-8l2.55-.31Zm0-11.3L132,177v-6.7l2.55-.42Zm0-10-2.55.43v-4.94l2.55-.49Zm0-8-2.55.52v-3.71l2.55-.56Zm4.19,46-2.55,0V190.84l2.55-.14Zm0-17-2.55.22v-8.09l2.55-.3Zm0-11.5-2.55.31v-6.82l2.55-.38Zm0-10.21-2.55.43v-5l2.55-.49Zm5.83,38.7H141V193.33l3.59-.2Zm0-14.56-3.59.24v-8.17l3.59-.34Zm0-12-3.59.41v-7.29l3.59-.52Zm0-10.88-3.59.57v-6.57l3.59-.67Zm5.09,38.68h-3.59V193.05l3.59-.21Zm0-16.17-3.59.24v-8.34l3.59-.3Zm0-12.23-3.59.43v-7.46l3.59-.52Zm0-11.09-3.59.57v-6.71l3.59-.67Zm5.25,38.12-3.59.11V192.76l3.59-.2Zm0-15-3.59.11v-8.5l3.59-.36Zm0-12.6-3.59.42v-7.59l3.59-.52Zm0-11.32-3.59.57v-6.85l3.59-.67Zm5.16,38.91-3.59,0v-12l3.59-.2Zm0-15.47-3.59.26v-8.69l3.59-.36Zm0-12.7-3.59.41V169l3.59-.54Zm0-11.56-3.59.57v-7l3.59-.67Zm7.34,49.14-3.5-.14v-8.69h3.5Zm0-10.5h-3.5V189.87l3.5-.18Zm0-19.53-3.5.25V171.75l3.5-.42Zm0-15.52-3.5.5v-7.4l3.5-.55Zm0-10.65-3.5.59v-6.11l3.5-.72Zm4.51,45.7h-3.5V189.64l3.5-.18Zm0-19.86-3.5.25v-12.6l3.5-.43Zm0-15.76-3.5.48v-7.52l3.5-.59Zm0-10.85-3.5.59v-6.22l3.5-.67Zm0-10.16-3.5.72v-5.79l3.5-.8Zm4.51,56.62h-3.5V189.47l3.5-.23Zm0-20.18-3.5.25v-12.8l3.5-.39Zm0-16-3.5.48V160l3.5-.55Zm0-11-3.5.59v-6.32l3.5-.67Zm6.22,49.24h-5.41v-20l5.41-.25Zm0-24.43-5.41.3v-11l5.41-.45Zm0-15-5.41.5v-7.84l5.41-.6Zm0-11.52-5.41.65V147l5.41-.76Zm7.12,51-5.41,0V185.09l5.41-.24Zm0-24.88-5.41.29V169.73l5.41-.5Zm0-15.28-5.41.5v-8l5.41-.61Zm0-11.73-5.41.66V146l5.41-.76Zm7.39,55.1-5.41-.07V196.69l5.41-.11Zm0-13-5.41.1V184.68l5.41-.15Zm0-15.53-5.41.29V169.12l5.41-.45Zm0-15.54-5.41.5V157l5.41-.6Zm0-11.93-5.41.65V145l5.41-.76Zm12.29-19.3,3.71-.57v5.27l-3.77.52Zm-3.17,74-5.86-.13V194.4l5.86-.14Zm0-14.25-5.86.07v-10l5.86-.21Zm0-14.64-5.86.33V168.58l5.86-.41Zm0-14.37-5.86.47V155l5.86-.56Zm8,39.92-5.86-.08v-9.66l5.86-.07Zm0-11-5.86.07V182.92l5.86-.21Zm0-14.92-5.86.27V168l5.86-.45Zm0-14.63-5.86.45v-9.8l5.86-.6Zm0-15.06-5.86.66v-5.93l5.86-.68Zm7.85,55.73-5.86-.09v-9.85h5.86Zm0-11.2-5.86.07V182.65l5.86-.21Zm0-15.19-5.86.27V167.46l5.86-.4Zm0-14.9-5.86.47v-10l5.86-.6Zm28.63-12v14.33l-8.54.6V151.72Zm0,18.58v14.38l-8.54.38V170ZM236,135.62l6.62-.91v9.57l-6.62.78ZM229.38,153l8.54-.86v13.94l-8.54.61Zm0,17.73,8.54-.53v14.12l-8.54.25Zm5,34.42-6.62-.12V190.59l6.62-.11Zm8.3.13-6.62-.11V190.45l6.62-.11ZM253,209.06l-6.62-.16V190.28l6.62-.11Zm24.45-64.48,6.76-.73v11l-6.76.59Zm7.7,37.88V192l-3.41,0v-9.42ZM277.5,161l6.76-.51V173.7l-6.76.35Zm-10.1-37.49,6.76-1v6.68l-6.76.95Zm7,59.26v9.28l-3.41,0V182.9Zm-7-49.84,6.76-.91v8.45l-6.76.8Zm0,12.75,6.76-.75v13.51l-6.76.56Zm0,16.09,6.76-.51v12.93l-6.76.34Zm-1.3,21.26,3.41-.1v9.19l-3.41,0Zm-8.59-36.3,6.76-.73V156.6l-6.76.58Zm7.42,36.33v9.1l-3.41,0v-9Zm-7.42-20.54,6.76-.54v12.65l-6.76.37ZM257,183.33l3.41-.1v9l-3.41,0Zm22.34,26L257,208.8V194.13l22.34-.18Zm0-17.3-3.41,0v-9.31l3.41-.1Zm8.73,17.3-6.28.06V195.53a3.12,3.12,0,0,1,3-1.57,3.65,3.65,0,0,1,3.29,1.5Z" />
  <path fill="#fffdfd" d="M30.57,276.65S120,244,138.31,241c23.54-3.82,99.11-30.19,166.26-23.44,0,15.27,0,27.62,0,27.62l-1.7.52s.85-22.53-8.48-21.68C280,225.36,280,252.88,280,252.88l-5.09,1.59s-.85-30.42-22.06-28.73c-30.63,2.45-32.24,45.68-32.24,45.68l-12.73,3.93s5.73-38.62-28.84-33.5c-22.91,3.39-34.78,34.78-34.78,34.78Z" />
  <path fill="#eb0000" d="M47.21,102.3a25,25,0,0,0-17.55,6.83v.61H31l.15,1.31h1l6.29,18.35,11.14.77,6.14-.84,6.14-18.28h1l.08-1.31h1.15v-1S58.31,102.38,47.21,102.3ZM38.8,128.79l-6.07-17.35,8.37-2.69,1.92,19Zm5.61-1.54-2.07-18.7,9.75,1.4L50,127.26Zm10,.46-3.84-.46L53,110.08l6.27.91Zm1.77-2.61,4-14,.95.14Z" />
  <rect fill="#eb0000" x="43.1" y="98" width="8.45" height="5.14" rx="2.57" ry="2.57" />
  <path fill="#eb0000" d="M46.72,139.76a5.89,5.89,0,0,0,1.78-.63,11.25,11.25,0,0,1,3.88-5c2.61-1.61,1.23-3.6,0-4.3-.64-.36-3.29-.48-5.66-.52C46.71,133.25,46.72,135.51,46.72,139.76Z" />
  <path fill="#eb0000" d="M46.71,139.76a5.89,5.89,0,0,1-1.78-.63,11.25,11.25,0,0,0-3.88-5c-2.61-1.61-1.23-3.6,0-4.3.64-.36,3.29-.48,5.66-.52C46.71,133.25,46.71,135.51,46.71,139.76Z" />
  <path fill="#eb0000" d="M45,139,42.43,225.4H40.79l-1.95,4h2.76l-4.91,29.79s-.66,2.67,10,2.51c11.89-.18,9.53-3.23,9.53-3.23l-4.79-29.08h2.76l-1.95-4H50.64L48.46,139Z" />
  <rect fill="#fff" opacity="0.7" x="-0.96" width="306" height="277" />
</svg>
