<svg xmlns="http://www.w3.org/2000/svg" viewBox="0 0 360 640"><defs><style>.cls-1{fill:#eb0000;}.cls-2{fill:#ebc7c7;}.cls-3{fill:#be0000;}.cls-4{fill:#fffdfd;}.cls-5{fill:#fff;opacity:0.65;}</style></defs><title>background</title><g id="Layer_9" data-name="Layer 9"><polygon class="cls-1" points="124.89 534.67 134.22 513.42 134.64 497.5 145.14 501.27 153.22 504.92 156.3 486.75 159.55 486.25 163.55 502 176.05 489.75 185.97 493.67 192.97 492.25 194.3 485 200.8 476.25 210.3 478.5 234.55 475.75 236.22 485.67 250.47 466.67 266.39 494.58 283.3 460.75 303.05 483.75 320.05 451 339.87 476.44 341.47 564.5 197.18 566.75 133.49 565.63 125.55 554 124.89 534.67"/><path class="cls-2" d="M104.27,553.75s-11.5,5.75-5.58,9.83,22.33,6.83,28.25,7.83,233.19,27,233.19,27l0,41.55H0V562.53s34.12-7.36,83.1-8.78C89.6,553.56,104.27,553.75,104.27,553.75Z"/><path class="cls-1" d="M348.13,578c-9.84.9-14,12.2-15.73,21.53l25.73,4,.79-7.72C358.31,588.08,355.2,577.36,348.13,578Z"/><path class="cls-1" d="M212.13,599c-15.14,2.24-26.19,14.86-33,25.51l67,14S252.88,593,212.13,599Z"/><polygon class="cls-1" points="129.48 509.5 133.94 509.5 133.94 512.08 129.48 516.54 129.48 509.5"/><polygon class="cls-1" points="122.94 519.5 126.6 519.5 126.6 522.83 122.94 524.58 122.94 519.5"/><polygon class="cls-1" points="259.01 465.58 274.74 470.01 274.74 489.67 259.01 489.67 259.01 465.58"/><polygon class="cls-1" points="341.93 566.3 360.01 565.68 360.01 476.88 352.13 464.75 352.13 456 348.76 454.38 341.01 455.63 341.01 458.88 326.76 452.67 332.25 476.17 339.07 483.13 341.93 566.3"/><polygon class="cls-1" points="203.11 469.51 217.23 472.75 217.23 465.13 220.1 464.31 223.79 465 224.31 468.87 219.06 475.75 209.97 477.12 209.97 481.46 203.98 481.88 203.11 469.51"/><path class="cls-1" d="M162.1,483.63h14.26l2-2,20.79-5.86-1,13.88s-35.58,12.83-35.25,12.67-3.25-14.83-3.25-14.83Z"/><polygon class="cls-1" points="289.81 456.05 290.81 456.38 289.81 456.38 289.81 458.38 309.63 465.41 305.79 483.13 289.42 471.81 285.67 456.31 289.81 456.05"/><polygon class="cls-1" points="135.77 481.58 178.59 481.58 177.02 484.67 156.1 495.75 151.23 504.5 136.1 497.85 135.77 481.58"/><path class="cls-1" d="M98.69,563.58c5.92,4.08,22.33,6.83,28.25,7.83.71.12,4.63.6,11,1.36,33.15-3.88,76.19-8,96.89-6.94,34.17,1.67,71.71,2.29,71.71,2.29l53.6-1.21h0v-1.24l-18.08.63L176.6,564a204.78,204.78,0,0,1-28.78-2l-2.29-.36c-1.73-.29-3.44-.62-5.12-1l-.69-.15c-15.75-3.53-20-7.66-20-7.66v-1.46h-4.92s-7.33,1-10.58,2.33C104.27,553.75,92.77,559.5,98.69,563.58Z"/><path class="cls-1" d="M299.13,580c-16.42,1.31-25.76,12.56-31.07,24.44l57.07,9.42S324.13,578,299.13,580Z"/><path class="cls-1" d="M308.5,566.56s-39.68,1-73.85-.67-129.17,10.5-140.17,12.83S-.13,587.56-.13,587.56L0,640.06H37s105.44-38.5,127-42c27.75-4.5,117-35.64,196.14-27.68,0,.41,0-5.49,0-5.49Z"/><path class="cls-3" d="M313.49,569.68q2.86-.17,5.73-.29Q316.35,569.51,313.49,569.68Z"/><path class="cls-3" d="M299.68,570.74q2.83-.27,5.67-.49Q302.51,570.47,299.68,570.74Z"/><path class="cls-3" d="M320.23,569.35q2.94-.12,5.88-.19Q323.17,569.23,320.23,569.35Z"/><path class="cls-3" d="M235.92,581h0l5.55-1.18Z"/><path class="cls-3" d="M306.61,570.15q2.81-.22,5.63-.39Q309.42,569.93,306.61,570.15Z"/><path class="cls-3" d="M326.58,569.15q2.92-.06,5.85-.06Q329.51,569.1,326.58,569.15Z"/><path class="cls-3" d="M339.16,569.15q-2.86-.06-5.73-.06Q336.3,569.09,339.16,569.15Z"/><path class="cls-3" d="M242.05,579.68l5.34-1.08Z"/><path class="cls-3" d="M254.61,577.21l5.46-1Z"/><path class="cls-3" d="M260.72,576.09l5.23-.9Z"/><path class="cls-3" d="M293.15,571.41q2.76-.3,5.53-.57Q295.9,571.1,293.15,571.41Z"/><path class="cls-3" d="M266.84,575q2.69-.44,5.42-.86Q269.54,574.61,266.84,575Z"/><path class="cls-3" d="M248.32,578.41l5.29-1Z"/><path class="cls-3" d="M286.8,572.15q2.86-.36,5.75-.68Q289.67,571.79,286.8,572.15Z"/><path class="cls-3" d="M273.51,574l5.36-.79Z"/><path class="cls-3" d="M280.19,573q2.72-.38,5.46-.73Q282.91,572.64,280.19,573Z"/><polygon class="cls-4" points="342.02 471.25 360.1 476.88 360.1 477.47 342.02 471.88 342.02 471.25"/><polygon class="cls-1" points="219.06 475.75 224.73 468.31 242.44 472.44 242.44 483.27 236.59 484.03 236.59 473.11 219.06 475.75"/><path class="cls-4" d="M325.45,446.22l2.09-.26-10.1-2.46-8,5.51,2.41-.42s1,21-9.87,27.74v4l-13.29-19.87v-4.17l1.12-.19-7.06-4-6.15,6.24,1.86-.31v4.3L267.06,486v-5.89l-8,1v-22s-2.47-3.45-9.08-2.33-7.5,5.22-7.5,5.22v21.23l-5.85.75V473.11l-26.61,4v4.34s-4.12.54-4.74-9.4c0,0-.32-4.44-3.94-3.69-3.45.72-2.87,4.94-2.87,4.94a10.05,10.05,0,0,1-6,10.49c.11,3.17.3,6.26.3,6.26l-7,1.69-9.88-4.93L168.17,496l-2.48.62v2s-2.79,1.42-3.29-4a97.24,97.24,0,0,1-.29-11l-8.37,3.13.54,9.17s.65,5.5-4.17,7.23V491.79l-12.5,5.92-1.83-16.12-1.83,19.5v11l-4.46,4.46v-7l-2.88,1.92v11.42l-3.67,1.75V519.5l-3.17,1.92v34.67l17,4.73v-10l.43-.06v10.09h-.12l2.65.74V551l1.54-.12v11.14l1.42.39V550.81l2.21-.18v12.45l1.4.39v-.78h0V550.51l1.54-.13v11.9h0v1.61l1.27.35,84.75,5.28L342,566.31V471.25S329.53,470.64,325.45,446.22ZM135.14,560l-.43,0v-9l.43-.06Zm0-11.64-.43,0v-9.06l.43-.06Zm0-13-.43.08V528.3l.43-.09Zm0-10.85-.43.09V519.2l.43-.1Zm0-9.77-.43.11V509l.43-.12Zm0-8.53-.43.13v-6.83l.43-.14Zm1,53.87-.43,0V551l.43-.06Zm0-11.87-.43.06V539.2l.43-.06Zm0-13-.43.08v-7.19l.43-.11Zm0-10.89-.43.09V519l.43-.1Zm0-9.82-.43.13v-5.92l.43-.12Zm0-8.56-.43.12v-6.86l.43-.14Zm0-9.61-.43.2v-6.81l.43-.22Zm1,51.74-.43.08v-9.12l.43-.08Zm0-13-.43.08v-7.2l.43-.08Zm0-10.94-.43.09v-5.49l.43-.1Zm0-9.87-.43.11v-5.93l.43-.12Zm0-8.59-.43.12V498.9l.43-.14ZM140.5,547l-1.54.18v-9.42l1.54-.31Zm0-12.52-1.54.23v-6.3l1.54-.27Zm0-12.92-1.54.31V515.9l1.54-.34Zm0-11.92L139,510v-4.08l1.54-.41Zm3.63,37.05-2.21.2v-9.66l2.21-.38Zm0-12.75-2.21.33v-6.38l2.21-.38Zm0-13.1-2.21.44v-6l2.21-.51Zm0-9.43-2.21.54v-8.39l2.21-.59Zm2.94,35-1.54.17v-9.88l1.54-.31Zm0-12.86-1.54.24v-6.45l1.54-.28Zm0-13.27-1.54.33v-6.1l1.54-.34Zm0-12.2-1.54.38v-4.23l1.54-.41Zm7.84,49.49h-3l.16-10.52,2.85,0Zm0-11.67-3,.13v-6.49l3-.2Zm0-9.94-3,.25v-9.25l3-.34Zm0-13.11-3,.38V515.4l3-.47Zm0-11.63-3,.57v-5.79l3-.56Zm4.78,44.05-3,0V539.17l3-.18Zm0-19.71-3,.27v-9.39l3-.37Zm0-13.32-3,.38v-7.89l3-.49Zm0-11.83-3,.51V505l3-.57Zm0-9.46-3,.61v-4.38l3-.66Zm4.94,54.28-3,0V538.85l3-.17Zm0-20.06-3,.26v-9.54l3-.36Zm0-13.55-3,.37v-8l3-.45Zm0-12-3,.51V504.1l3-.58Zm6.87,45.62h-4.24V541.79l4.24-.23Zm0-17.16-4.24.28v-9.63l4.24-.4Zm0-14.11-4.24.49v-8.6l4.24-.62Zm0-12.83-4.24.68V504l4.24-.79Zm6,45.59h-4.24V541.46l4.24-.24Zm0-19.06-4.24.28V528l4.24-.36Zm0-14.42-4.24.5v-8.79l4.24-.62Zm0-13.08-4.24.68v-7.91l4.24-.79ZM183.69,555l-4.24.13v-14l4.24-.23Zm0-17.71-4.24.12v-10l4.24-.43Zm0-14.86-4.24.49V514l4.24-.62Zm0-13.35-4.24.68v-8.08l4.24-.79Zm6.08,45.86-4.24,0v-14.2l4.24-.23Zm0-18.23-4.24.31V526.79l4.24-.43Zm0-15-4.24.49v-9.14l4.24-.64Zm0-13.63-4.24.68v-8.24l4.24-.79ZM198.42,566l-4.12-.16V555.64h4.12Zm0-12.38h-4.12v-16l4.12-.21Zm0-23-4.12.3v-14.6l4.12-.49Zm0-18.29-4.12.59v-8.72l4.12-.65Zm0-12.56-4.12.7v-7.21l4.12-.85Zm5.31,53.87h-4.12V537.44l4.12-.21Zm0-23.41-4.12.3V515.71l4.12-.51Zm0-18.57-4.12.56v-8.87l4.12-.7Zm0-12.79-4.12.7v-7.33l4.12-.79Zm0-12-4.12.85v-6.83l4.12-.94ZM209,553.67h-4.12V537.23L209,537Zm0-23.79-4.12.3V515.08l4.12-.46ZM209,511l-4.12.56v-9l4.12-.65Zm0-13-4.12.7v-7.45l4.12-.79Zm7.34,58H210V532.46l6.38-.3Zm0-28.79-6.38.35V514.66l6.38-.53Zm0-17.7-6.38.59V500.9l6.38-.71Zm0-13.58-6.38.77v-9.53l6.38-.9Zm8.39,60.15-6.38,0v-24l6.38-.28Zm0-29.33-6.38.34V514l6.38-.59Zm0-18-6.38.59V500l6.38-.72Zm0-13.83-6.38.78V486l6.38-.9Zm8.71,64.95-6.38-.08V545.75l6.38-.13Zm0-15.28-6.38.12V531.59l6.38-.18Zm0-18.31-6.38.35v-13.4l6.38-.53Zm0-18.32-6.38.59V499l6.38-.71Zm0-14.06-6.38.77v-9.87l6.38-.9ZM248,471.17l4.37-.67v6.21l-4.45.62Zm-3.73,87.23-6.91-.16V543l6.91-.17Zm0-16.8-6.91.08V529.85l6.91-.24Zm0-17.26-6.91.39V512.61l6.91-.49Zm0-16.94-6.91.56V496.6l6.91-.66Zm9.38,47.05-6.91-.1V543l6.91-.09Zm0-13-6.91.08v-12l6.91-.24Zm0-17.59-6.91.32V512l6.91-.53Zm0-17.25-6.91.54V495.63l6.91-.71Zm0-17.76-6.91.77v-7l6.91-.81Zm9.25,65.69-6.91-.1V542.88h6.91Zm0-13.2-6.91.08V529.2l6.91-.24Zm0-17.9-6.91.32V511.29l6.91-.47Zm0-17.56-6.91.55V494.68l6.91-.71Zm33.75-14.2v16.9l-10.07.7V492.74Zm0,21.91v17l-10.07.45v-16.8Zm-17.27-39.88,7.81-1.07V484l-7.81.92Zm-7.86,20.5,10.07-1v16.43l-10.07.72Zm0,20.9,10.07-.62v16.64l-10.07.3Zm5.88,40.58-7.81-.14v-17l7.81-.13Zm9.78.16-7.81-.13V538.39l7.81-.13Zm12.24,4.44-7.81-.19v-22l7.81-.13Zm28.82-76,8-.87v13l-8,.69ZM337.27,529v11.18l-4,0V529.1ZM328.2,503.7l8-.6v15.55l-8,.41Zm-11.91-44.19,8-1.23v7.88l-8,1.12Zm8.21,69.86v10.94l-4,0V529.5Zm-8.21-58.75,8-1.07v10l-8,.94Zm0,15,8-.89v15.92l-8,.66Zm0,19,8-.6v15.24l-8,.4Zm-1.53,25.07,4-.12v10.83l-4,0Zm-10.13-42.78,8-.87v12.47l-8,.68Zm8.74,42.83v10.73l-4,0V529.84Zm-8.74-24.21,8-.64v14.92l-8,.44ZM304,530l4-.12v10.63l-4,0Zm26.33,30.63L304,560V542.73l26.33-.21Zm0-20.39-4,0v-11l4-.12Zm10.29,20.39-7.4.07V544.38s.73-1.78,3.52-1.85a4.3,4.3,0,0,1,3.88,1.77Z"/><path class="cls-4" d="M37.13,640s105.44-38.5,127-42c27.75-4.5,116.83-35.58,196-27.62,0,18,0,32.56,0,32.56l-2,.62s1-26.55-10-25.55c-17,1.54-17,34-17,34l-6,1.88s-1-35.86-26-33.86c-36.11,2.89-38,53.85-38,53.85l-15,4.64s6.75-45.52-34-39.49c-27,4-41,41-41,41Z"/><path class="cls-1" d="M56.74,434.48a29.52,29.52,0,0,0-20.68,8.06v.72H37.6l.18,1.54H39l7.41,21.63,13.13.91,7.24-1L74,444.8h1.18l.09-1.54h1.36v-1.18S69.82,434.57,56.74,434.48Zm-9.91,31.23-7.15-20.46,9.87-3.17,2.26,22.36Zm6.61-1.81-2.44-22,11.5,1.64L60,463.9Zm11.77.54-4.53-.54,2.9-20.25L71,444.72Zm2.08-3.08L72,444.87l1.12.16Z"/><rect class="cls-1" x="51.9" y="429.41" width="9.96" height="6.06" rx="3.03" ry="3.03"/><path class="cls-1" d="M56.16,478.64a6.94,6.94,0,0,0,2.1-.74s1.49-4,4.57-5.94,1.45-4.25,0-5.06c-.76-.43-3.88-.57-6.67-.61C56.16,471,56.16,473.63,56.16,478.64Z"/><path class="cls-1" d="M56.16,478.64a6.94,6.94,0,0,1-2.1-.74s-1.49-4-4.57-5.94-1.45-4.25,0-5.06c.76-.43,3.88-.57,6.67-.61C56.16,471,56.16,473.63,56.16,478.64Z"/><path class="cls-1" d="M54.13,477.79l-3,101.8H49.17l-2.29,4.71h3.26l-5.79,35.12s-.78,3.15,11.81,3c14-.21,11.24-3.8,11.24-3.8L61.75,584.3H65l-2.29-4.71H60.79l-2.57-101.8Z"/></g><g id="Layer_2" data-name="Layer 2"><rect class="cls-5" x="-29.45" y="-58.44" width="416.98" height="714.8"/></g></svg>