<svg xmlns="http://www.w3.org/2000/svg" viewBox="0 0 360 640">
  <path fill="#eb0000" d="M124.89 534.67l9.33-21.25.42-15.92 10.5 3.77 8.08 3.65 3.08-18.17 3.25-.5 4 15.75 12.5-12.25 9.92 3.92 7-1.42 1.33-7.25 6.5-8.75 9.5 2.25 24.25-2.75 1.67 9.92 14.25-19 15.92 27.91 16.91-33.83 19.75 23 17-32.75 19.82 25.44 1.6 88.06-144.29 2.25-63.69-1.12-7.94-11.63-.66-19.33z"/>
  <path fill="#ebc7c7" d="M104.27 553.75s-11.5 5.75-5.58 9.83 22.33 6.83 28.25 7.83 233.19 27 233.19 27v41.55H0v-77.43s34.12-7.36 83.1-8.78c6.5-.19 21.17 0 21.17 0z"/>
  <path fill="#eb0000" d="M348.13 578c-9.84.9-14 12.2-15.73 21.53l25.73 4 .79-7.72c-.61-7.73-3.72-18.45-10.79-17.81zM212.13 599c-15.14 2.24-26.19 14.86-33 25.51l67 14s6.75-45.51-34-39.51zM129.48 509.5h4.46v2.58l-4.46 4.46v-7.04zM122.94 519.5h3.66v3.33l-3.66 1.75v-5.08zM259.01 465.58l15.73 4.43v19.66h-15.73v-24.09zM341.93 566.3l18.08-.62v-88.8l-7.88-12.13V456l-3.37-1.62-7.75 1.25v3.25l-14.25-6.21 5.49 23.5 6.82 6.96 2.86 83.17zM203.11 469.51l14.12 3.24v-7.62l2.87-.82 3.69.69.52 3.87-5.25 6.88-9.09 1.37v4.34l-5.99.42-.87-12.37zM162.1 483.63h14.26l2-2 20.79-5.86-1 13.88s-35.58 12.83-35.25 12.67-3.25-14.83-3.25-14.83zM289.81 456.05l1 .33h-1v2l19.82 7.03-3.84 17.72-16.37-11.32-3.75-15.5 4.14-.26z"/>
  <path fill="#eb0000" d="M135.77 481.58h42.82l-1.57 3.09-20.92 11.08-4.87 8.75-15.13-6.65-.33-16.27zM98.69 563.58c5.92 4.08 22.33 6.83 28.25 7.83.71.12 4.63.6 11 1.36 33.15-3.88 76.19-8 96.89-6.94 34.17 1.67 71.71 2.29 71.71 2.29l53.6-1.21v-1.24l-18.08.63L176.6 564a204.78 204.78 0 0 1-28.78-2l-2.29-.36c-1.73-.29-3.44-.62-5.12-1l-.69-.15c-15.75-3.53-20-7.66-20-7.66v-1.46h-4.92s-7.33 1-10.58 2.33c.05.05-11.45 5.8-5.53 9.88zM299.13 580c-16.42 1.31-25.76 12.56-31.07 24.44l57.07 9.42s-1-35.86-26-33.86z"/>
  <path fill="#eb0000" d="M308.5 566.56s-39.68 1-73.85-.67-129.17 10.5-140.17 12.83-94.61 8.84-94.61 8.84l.13 52.5h37s105.44-38.5 127-42c27.75-4.5 117-35.64 196.14-27.68v-5.49z"/>
  <path fill="#be0000" d="M313.49 569.68q2.86-.17 5.73-.29-2.87.12-5.73.29zM299.68 570.74q2.83-.27 5.67-.49-2.84.22-5.67.49zM320.23 569.35q2.94-.12 5.88-.19-2.94.07-5.88.19zM235.92 581l5.55-1.18zM306.61 570.15q2.81-.22 5.63-.39-2.82.17-5.63.39zM326.58 569.15q2.92-.06 5.85-.06-2.92.01-5.85.06zM339.16 569.15q-2.86-.06-5.73-.06 2.87 0 5.73.06zM242.05 579.68l5.34-1.08zM254.61 577.21l5.46-1zM260.72 576.09l5.23-.9zM293.15 571.41q2.76-.3 5.53-.57-2.78.26-5.53.57zM266.84 575q2.69-.44 5.42-.86-2.72.47-5.42.86zM248.32 578.41l5.29-1zM286.8 572.15q2.86-.36 5.75-.68-2.88.32-5.75.68zM273.51 574l5.36-.79zM280.19 573q2.72-.38 5.46-.73-2.74.37-5.46.73z"/>
  <path fill="#fffdfd" d="M342.02 471.25l18.08 5.63v.59l-18.08-5.59v-.63z"/>
  <path fill="#eb0000" d="M219.06 475.75l5.67-7.44 17.71 4.13v10.83l-5.85.76v-10.92l-17.53 2.64z"/>
  <path fill="#fffdfd" d="M325.45 446.22l2.09-.26-10.1-2.46-8 5.51 2.41-.42s1 21-9.87 27.74v4l-13.29-19.87v-4.17l1.12-.19-7.06-4-6.15 6.24 1.86-.31v4.3L267.06 486v-5.89l-8 1v-22s-2.47-3.45-9.08-2.33-7.5 5.22-7.5 5.22v21.23l-5.85.75v-10.87l-26.61 4v4.34s-4.12.54-4.74-9.4c0 0-.32-4.44-3.94-3.69-3.45.72-2.87 4.94-2.87 4.94a10.05 10.05 0 0 1-6 10.49c.11 3.17.3 6.26.3 6.26l-7 1.69-9.88-4.93-7.72 9.19-2.48.62v2s-2.79 1.42-3.29-4a97.24 97.24 0 0 1-.29-11l-8.37 3.13.54 9.17s.65 5.5-4.17 7.23v-11.36l-12.5 5.92-1.83-16.12-1.83 19.5v11l-4.46 4.46v-7l-2.88 1.92v11.42l-3.67 1.75v-5.14l-3.17 1.92v34.67l17 4.73v-10l.43-.06v10.09h-.12l2.65.74V551l1.54-.12v11.14l1.42.39v-11.6l2.21-.18v12.45l1.4.39V550.51l1.54-.13v13.51l1.27.35 84.75 5.28L342 566.31v-95.06s-12.47-.61-16.55-25.03zM135.14 560h-.43v-9l.43-.06zm0-11.64h-.43v-9.06l.43-.06zm0-13l-.43.08v-7.14l.43-.09zm0-10.85l-.43.09v-5.4l.43-.1zm0-9.77l-.43.11V509l.43-.12zm0-8.53l-.43.13v-6.83l.43-.14zm1 53.87h-.43V551l.43-.06zm0-11.87l-.43.06v-9.07l.43-.06zm0-13l-.43.08v-7.19l.43-.11zm0-10.89l-.43.09V519l.43-.1zm0-9.82l-.43.13v-5.92l.43-.12zm0-8.56l-.43.12v-6.86l.43-.14zm0-9.61l-.43.2v-6.81l.43-.22zm1 51.74l-.43.08v-9.12l.43-.08zm0-13l-.43.08v-7.2l.43-.08zm0-10.94l-.43.09v-5.49l.43-.1zm0-9.87l-.43.11v-5.93l.43-.12zm0-8.59l-.43.12v-6.89l.43-.14zM140.5 547l-1.54.18v-9.42l1.54-.31zm0-12.52l-1.54.23v-6.3l1.54-.27zm0-12.92l-1.54.31v-5.97l1.54-.34zm0-11.92l-1.5.36v-4.08l1.54-.41zm3.63 37.05l-2.21.2v-9.66l2.21-.38zm0-12.75l-2.21.33v-6.38l2.21-.38zm0-13.1l-2.21.44v-6l2.21-.51zm0-9.43l-2.21.54v-8.39l2.21-.59zm2.94 35l-1.54.17v-9.88l1.54-.31zm0-12.86l-1.54.24v-6.45l1.54-.28zm0-13.27l-1.54.33v-6.1l1.54-.34zm0-12.2l-1.54.38v-4.23l1.54-.41zm7.84 49.49h-3l.16-10.52h2.85zm0-11.67l-3 .13v-6.49l3-.2zm0-9.94l-3 .25v-9.25l3-.34zm0-13.11l-3 .38v-7.83l3-.47zm0-11.63l-3 .57V506l3-.56zm4.78 44.05h-3v-16.1l3-.18zm0-19.71l-3 .27v-9.39l3-.37zm0-13.32l-3 .38v-7.89l3-.49zm0-11.83l-3 .51V505l3-.57zm0-9.46l-3 .61v-4.38l3-.66zm4.94 54.28h-3v-16.38l3-.17zm0-20.06l-3 .26v-9.54l3-.36zm0-13.55l-3 .37v-8l3-.45zm0-12l-3 .51v-6.03l3-.58zm6.87 45.62h-4.24v-13.45l4.24-.23zm0-17.16l-4.24.28v-9.63l4.24-.4zm0-14.11l-4.24.49v-8.6l4.24-.62zm0-12.83l-4.24.68V504l4.24-.79zm6 45.59h-4.24v-15.27l4.24-.24zm0-19.06l-4.24.28V528l4.24-.36zm0-14.42l-4.24.5v-8.79l4.24-.62zm0-13.08l-4.24.68v-7.91l4.24-.79zm6.19 44.83l-4.24.13v-14l4.24-.23zm0-17.71l-4.24.12v-10l4.24-.43zm0-14.86l-4.24.49V514l4.24-.62zm0-13.35l-4.24.68v-8.08l4.24-.79zm6.08 45.86h-4.24v-14.2l4.24-.23zm0-18.23l-4.24.31v-10.23l4.24-.43zm0-15l-4.24.49v-9.14l4.24-.64zm0-13.63l-4.24.68v-8.24l4.24-.79zm8.65 57.92l-4.12-.16v-10.2h4.12zm0-12.38h-4.12v-16l4.12-.21zm0-23l-4.12.3v-14.6l4.12-.49zm0-18.29l-4.12.59v-8.72l4.12-.65zm0-12.56l-4.12.7v-7.21l4.12-.85zm5.31 53.87h-4.12v-16.2l4.12-.21zm0-23.41l-4.12.3v-14.82l4.12-.51zm0-18.57l-4.12.56v-8.87l4.12-.7zm0-12.79l-4.12.7v-7.33l4.12-.79zm0-12l-4.12.85v-6.83l4.12-.94zm5.27 66.8h-4.12v-16.44L209 537zm0-23.79l-4.12.3v-15.1l4.12-.46zm0-18.88l-4.12.56v-9l4.12-.65zm0-13l-4.12.7v-7.45l4.12-.79zm7.34 58H210v-23.54l6.38-.3zm0-28.79l-6.38.35v-12.9l6.38-.53zm0-17.7l-6.38.59v-9.2l6.38-.71zm0-13.58l-6.38.77v-9.53l6.38-.9zm8.39 60.15h-6.38v-24l6.38-.28zm0-29.33l-6.38.34V514l6.38-.59zm0-18l-6.38.59V500l6.38-.72zm0-13.83l-6.38.78V486l6.38-.9zm8.71 64.95l-6.38-.08v-14.04l6.38-.13zm0-15.28l-6.38.12v-13.12l6.38-.18zm0-18.31l-6.38.35v-13.4l6.38-.53zm0-18.32l-6.38.59V499l6.38-.71zm0-14.06l-6.38.77v-9.87l6.38-.9zM248 471.17l4.37-.67v6.21l-4.45.62zm-3.73 87.23l-6.91-.16V543l6.91-.17zm0-16.8l-6.91.08v-11.83l6.91-.24zm0-17.26l-6.91.39v-12.12l6.91-.49zm0-16.94l-6.91.56V496.6l6.91-.66zm9.38 47.05l-6.91-.1V543l6.91-.09zm0-13l-6.91.08v-12l6.91-.24zm0-17.59l-6.91.32V512l6.91-.53zm0-17.25l-6.91.54v-11.52l6.91-.71zm0-17.76l-6.91.77v-7l6.91-.81zm9.25 65.69l-6.91-.1v-11.56h6.91zm0-13.2l-6.91.08V529.2l6.91-.24zm0-17.9l-6.91.32v-12.47l6.91-.47zm0-17.56l-6.91.55v-11.75l6.91-.71zm33.75-14.2v16.9l-10.07.7v-16.54zm0 21.91v17l-10.07.45v-16.8zm-17.27-39.88l7.81-1.07V484l-7.81.92zm-7.86 20.5l10.07-1v16.43l-10.07.72zm0 20.9l10.07-.62v16.64l-10.07.3zm5.88 40.58l-7.81-.14v-17l7.81-.13zm9.78.16l-7.81-.13v-17.33l7.81-.13zm12.24 4.44l-7.81-.19v-22l7.81-.13zm28.82-76l8-.87v13l-8 .69zm9.03 44.71v11.18h-4V529.1zm-9.07-25.3l8-.6v15.55l-8 .41zm-11.91-44.19l8-1.23v7.88l-8 1.12zm8.21 69.86v10.94h-4V529.5zm-8.21-58.75l8-1.07v10l-8 .94zm0 15l8-.89v15.92l-8 .66zm0 19l8-.6v15.24l-8 .4zm-1.53 25.07l4-.12v10.83h-4zm-10.13-42.78l8-.87v12.47l-8 .68zm8.74 42.83v10.73h-4v-10.63zm-8.74-24.21l8-.64v14.92l-8 .44zM304 530l4-.12v10.63h-4zm26.33 30.63L304 560v-17.27l26.33-.21zm0-20.39h-4v-11l4-.12zm10.29 20.39l-7.4.07v-16.32s.73-1.78 3.52-1.85a4.3 4.3 0 0 1 3.88 1.77z"/>
  <path fill="#fffdfd" d="M37.13 640s105.44-38.5 127-42c27.75-4.5 116.83-35.58 196-27.62v32.56l-2 .62s1-26.55-10-25.55c-17 1.54-17 34-17 34l-6 1.88s-1-35.86-26-33.86c-36.11 2.89-38 53.85-38 53.85l-15 4.64s6.75-45.52-34-39.49c-27 4-41 41-41 41z"/>
  <path fill="#eb0000" d="M56.74 434.48a29.52 29.52 0 0 0-20.68 8.06v.72h1.54l.18 1.54H39l7.41 21.63 13.13.91 7.24-1L74 444.8h1.18l.09-1.54h1.36v-1.18s-6.81-7.51-19.89-7.6zm-9.91 31.23l-7.15-20.46 9.87-3.17 2.26 22.36zm6.61-1.81l-2.44-22 11.5 1.64L60 463.9zm11.77.54l-4.53-.54 2.9-20.25 7.42 1.07zm2.08-3.08L72 444.87l1.12.16z"/>
  <rect fill="#eb0000" x="51.9" y="429.41" width="9.96" height="6.06" rx="3.03" ry="3.03"/>
  <path fill="#eb0000" d="M56.16 478.64a6.94 6.94 0 0 0 2.1-.74s1.49-4 4.57-5.94 1.45-4.25 0-5.06c-.76-.43-3.88-.57-6.67-.61v12.35zM56.16 478.64a6.94 6.94 0 0 1-2.1-.74s-1.49-4-4.57-5.94-1.45-4.25 0-5.06c.76-.43 3.88-.57 6.67-.61v12.35z"/>
  <path fill="#eb0000" d="M54.13 477.79l-3 101.8h-1.96l-2.29 4.71h3.26l-5.79 35.12s-.78 3.15 11.81 3c14-.21 11.24-3.8 11.24-3.8l-5.65-34.32H65l-2.29-4.71h-1.92l-2.57-101.8z"/>
</svg>
