<?xml version="1.0" encoding="UTF-8"?>
<svg width="24px" height="24px" viewBox="0 0 24 24" version="1.1" xmlns="http://www.w3.org/2000/svg" xmlns:xlink="http://www.w3.org/1999/xlink">
    <!-- Generator: Sketch 43.1 (39012) - http://www.bohemiancoding.com/sketch -->
    <title>Icons/Bold/Location</title>
    <desc>Created with Sketch.</desc>
    <defs>
        <path d="M7,1 C7,0.44771525 7.44771525,0 8,0 C8.55228475,0 9,0.44771525 9,1 L9,2 C9,2.55228475 8.55228475,3 8,3 C7.44771525,3 7,2.55228475 7,2 L7,1 Z M15,7 C15.5522847,7 16,7.44771525 16,8 C16,8.55228475 15.5522847,9 15,9 L14,9 C13.4477153,9 13,8.55228475 13,8 C13,7.44771525 13.4477153,7 14,7 L15,7 Z M7,14 C7,13.4477153 7.44771525,13 8,13 C8.55228475,13 9,13.4477153 9,14 L9,15 C9,15.5522847 8.55228475,16 8,16 C7.44771525,16 7,15.5522847 7,15 L7,14 Z M2,7 C2.55228475,7 3,7.44771525 3,8 C3,8.55228475 2.55228475,9 2,9 L1,9 C0.44771525,9 4.88498131e-15,8.55228475 0,8 C-4.88498131e-15,7.44771525 0.44771525,7 1,7 L2,7 Z M8,13.9736842 C4.70082531,13.9736842 2.02631579,11.2991747 2.02631579,8 C2.02631579,4.70082531 4.70082531,2.02631579 8,2.02631579 C11.2991747,2.02631579 13.9736842,4.70082531 13.9736842,8 C13.9736842,11.2991747 11.2991747,13.9736842 8,13.9736842 Z M8,12.9736842 C10.7468899,12.9736842 12.9736842,10.7468899 12.9736842,8 C12.9736842,5.25311006 10.7468899,3.02631579 8,3.02631579 C5.25311006,3.02631579 3.02631579,5.25311006 3.02631579,8 C3.02631579,10.7468899 5.25311006,12.9736842 8,12.9736842 Z M8,10.5 C6.61928813,10.5 5.5,9.38071187 5.5,8 C5.5,6.61928813 6.61928813,5.5 8,5.5 C9.38071187,5.5 10.5,6.61928813 10.5,8 C10.5,9.38071187 9.38071187,10.5 8,10.5 Z" id="path-1"></path>
    </defs>
    <g id="Symbols" stroke="none" stroke-width="1" fill="none" fill-rule="evenodd">
        <g id="Icons/Bold/Location">
            <g id="Line-Copy-2-+-Line-Copy-+-Line-Copy-3-+-Oval-3-+-Oval-3-Copy-+-Color/Rood-Mask" transform="translate(4.000000, 4.000000)">
                <mask id="mask-2" fill="white">
                    <use xlink:href="#path-1"></use>
                </mask>
                <use id="Mask" fill="#979797" fill-rule="nonzero" xlink:href="#path-1"></use>
                <g id="Color/Wit" mask="url(#mask-2)" fill="#FFFFFF">
                    <g transform="translate(-4.000000, -4.000000)" id="Rectangle-Copy">
                        <rect x="0" y="0" width="24" height="24"></rect>
                    </g>
                </g>
            </g>
        </g>
    </g>
</svg>