<?xml version="1.0" encoding="UTF-8"?>
<svg width="24px" height="24px" viewBox="0 0 24 24" version="1.1" xmlns="http://www.w3.org/2000/svg" xmlns:xlink="http://www.w3.org/1999/xlink">
    <!-- Generator: Sketch 43.1 (39012) - http://www.bohemiancoding.com/sketch -->
    <title>Icons/Bold/Process</title>
    <desc>Created with Sketch.</desc>
    <defs>
        <path d="M7.35385441,2.25798843 L7.76823905,1.39386183 C8.07310892,0.758109121 8.84229351,0.403605169 9.52532541,0.586623015 L10.3857179,0.817164499 C11.0653558,0.999272912 11.5574276,1.69444232 11.5037799,2.394797 L11.4305726,3.35049734 C11.8950729,3.69374903 12.306251,4.10492713 12.6495027,4.5694274 L13.605203,4.49622005 C14.3082159,4.44236874 14.9998177,4.93125016 15.1828355,5.61428206 L15.413377,6.47467459 C15.5954854,7.15431244 15.239487,7.92804386 14.6061382,8.23176095 L13.7420116,8.64614559 C13.6775783,9.22464735 13.5268628,9.78508748 13.2963861,10.3122828 L13.8369639,11.1023582 C14.235107,11.6842596 14.1575241,12.527645 13.6575101,13.027659 L13.027659,13.6575101 C12.5301296,14.1550395 11.6820593,14.2336015 11.1023582,13.8369639 L10.3122828,13.2963861 C9.78508748,13.5268628 9.22464735,13.6775783 8.64614559,13.7420116 L8.23176095,14.6061382 C7.92689108,15.2418909 7.15770649,15.5963948 6.47467459,15.413377 L5.61428206,15.1828355 C4.93464421,15.0007271 4.44257237,14.3055577 4.49622005,13.605203 L4.5694274,12.6495027 C4.10492713,12.306251 3.69374903,11.8950729 3.35049734,11.4305726 L2.394797,11.5037799 C1.69178407,11.5576313 1.00018235,11.0687498 0.817164499,10.3857179 L0.586623015,9.52532541 C0.404514602,8.84568756 0.760513043,8.07195614 1.39386183,7.76823905 L2.25798843,7.35385441 C2.32242174,6.77535265 2.47313723,6.21491252 2.70361394,5.68771715 L2.16303605,4.89764178 C1.76489299,4.31574038 1.84247585,3.47235501 2.34248991,2.97234095 L2.97234095,2.34248991 C3.46987039,1.84496047 4.31794068,1.76639845 4.89764178,2.16303605 L5.68771715,2.70361394 C6.21491252,2.47313723 6.77535265,2.32242174 7.35385441,2.25798843 Z M7.19478519,11.0051026 C8.85445751,11.4498104 10.5603947,10.4648871 11.0051026,8.80521481 C11.4498104,7.14554249 10.4648871,5.43960529 8.80521481,4.99489743 C7.14554249,4.55018957 5.43960529,5.53511287 4.99489743,7.19478519 C4.55018957,8.85445751 5.53511287,10.5603947 7.19478519,11.0051026 Z" id="path-1"></path>
    </defs>
    <g id="Symbols" stroke="none" stroke-width="1" fill="none" fill-rule="evenodd">
        <g id="Icons/Bold/Process">
            <g id="Oval-7-Copy-+-Color/Rood-Mask" transform="translate(4.000000, 4.000000)">
                <mask id="mask-2" fill="white">
                    <use xlink:href="#path-1"></use>
                </mask>
                <use id="Mask" fill="#979797" fill-rule="nonzero" xlink:href="#path-1"></use>
                <g id="Color/Rood" mask="url(#mask-2)" fill="#EC0000">
                    <g transform="translate(-2.666667, -2.666667)" id="Rectangle">
                        <rect x="0" y="0" width="21" height="21"></rect>
                    </g>
                </g>
            </g>
        </g>
    </g>
</svg>