<?xml version="1.0" encoding="UTF-8"?>
<svg width="24px" height="24px" viewBox="0 0 24 24" version="1.1" xmlns="http://www.w3.org/2000/svg" xmlns:xlink="http://www.w3.org/1999/xlink">
    <!-- Generator: Sketch 43.1 (39012) - http://www.bohemiancoding.com/sketch -->
    <title>Icons/Bold/Form</title>
    <desc>Created with Sketch.</desc>
    <defs>
        <path d="M3.08505274,2 L3.08505274,2 C3.02993123,2.15638946 3,2.32468229 3,2.5 C3,3.33420277 3.67369451,4 4.50473881,4 L9.49526119,4 C10.3316845,4 11,3.32842712 11,2.5 C11,2.32431533 10.9701195,2.15609997 10.9151817,2 L11.9941413,2 C13.1019465,2 14,2.89451376 14,3.99406028 L14,16.0059397 C14,17.1072288 13.1029399,18 11.9941413,18 L2.00585866,18 C0.898053512,18 0,17.1054862 0,16.0059397 L0,3.99406028 C0,2.8927712 0.897060126,2 2.00585866,2 L3.08505274,2 Z M3.5,8 L10.5,8 L10.5,7 L3.5,7 L3.5,8 Z M3.5,11 L10.5,11 L10.5,10 L3.5,10 L3.5,11 Z M3.5,14 L7.5,14 L7.5,13 L3.5,13 L3.5,14 Z M6.08379717,2 L4.50473881,2 C4.22230542,2 4,2.22215387 4,2.5 C4,2.77861682 4.22267481,3 4.50473881,3 L9.49526119,3 C9.77769458,3 10,2.77784613 10,2.5 C10,2.22138318 9.77732519,2 9.49526119,2 L7.91673237,2 L7.64884683,1.41829204 C7.53214574,1.16487802 7.28049687,1 7,1 C6.71555996,1 6.46649697,1.16318582 6.35092326,1.41590015 L6.08379717,2 Z M7,0 C7.6904239,0 8.28551829,0.410136855 8.55715942,1 L9.49526119,1 C10.3263055,1 11,1.66579723 11,2.5 C11,3.32842712 10.3316845,4 9.49526119,4 L4.50473881,4 C3.67369451,4 3,3.33420277 3,2.5 C3,1.67157288 3.66831553,1 4.50473881,1 L5.44151297,1 C5.71148135,0.409685166 6.30453174,0 7,0 Z" id="path-1"></path>
    </defs>
    <g id="Symbols" stroke="none" stroke-width="1" fill="none" fill-rule="evenodd">
        <g id="Icons/Bold/Form">
            <g id="Combined-Shape-Copy-+-Color/Rood-Mask" transform="translate(5.000000, 3.000000)">
                <mask id="mask-2" fill="white">
                    <use xlink:href="#path-1"></use>
                </mask>
                <use id="Mask" fill="#9B9B9B" xlink:href="#path-1"></use>
                <g id="Color/Rood" mask="url(#mask-2)" fill="#EC0000">
                    <g transform="translate(-5.000000, -3.000000)" id="Rectangle">
                        <rect x="0" y="0" width="24" height="24"></rect>
                    </g>
                </g>
            </g>
        </g>
    </g>
</svg>