<?xml version="1.0" encoding="UTF-8"?>
<svg width="24px" height="24px" viewBox="0 0 24 24" version="1.1" xmlns="http://www.w3.org/2000/svg" xmlns:xlink="http://www.w3.org/1999/xlink">
    <!-- Generator: Sketch 43.1 (39012) - http://www.bohemiancoding.com/sketch -->
    <title>Icons/Bold/Camera</title>
    <desc>Created with Sketch.</desc>
    <defs>
        <path d="M1.99401855,2.13333333 L4.4,2.13333333 L4.45972385,1.92098185 C4.75595703,0.867708333 5.89449617,0 6.99791312,0 L9.00208688,0 C10.1017394,0 11.2418899,0.860052871 11.5402761,1.92098185 L11.6,2.13333333 L14.0059814,2.13333333 C15.1095943,2.13333333 16,3.02944576 16,4.13485646 L16,13.9984769 C16,15.1114833 15.1072288,16 14.0059397,16 L1.99406028,16 C0.894513756,16 0,15.1038876 0,13.9984769 L0,4.13485646 C0,3.02185003 0.892752516,2.13333333 1.99401855,2.13333333 Z M3.5,6.5 C4.05228475,6.5 4.5,6.05228475 4.5,5.5 C4.5,4.94771525 4.05228475,4.5 3.5,4.5 C2.94771525,4.5 2.5,4.94771525 2.5,5.5 C2.5,6.05228475 2.94771525,6.5 3.5,6.5 Z M8,13 C10.209139,13 12,11.209139 12,9 C12,6.790861 10.209139,5 8,5 C5.790861,5 4,6.790861 4,9 C4,11.209139 5.790861,13 8,13 Z" id="path-1"></path>
    </defs>
    <g id="Symbols" stroke="none" stroke-width="1" fill="none" fill-rule="evenodd">
        <g id="Icons/Bold/Camera">
            <g id="Oval-5-Copy-+-Oval-5-+-Color/Rood-Mask" transform="translate(4.000000, 4.000000)">
                <mask id="mask-2" fill="white">
                    <use xlink:href="#path-1"></use>
                </mask>
                <use id="Mask" fill="#9B9B9B" xlink:href="#path-1"></use>
                <g id="Color/Rood" mask="url(#mask-2)" fill="#EC0000">
                    <g transform="translate(-4.000000, -4.000000)" id="Rectangle">
                        <rect x="0" y="0" width="24" height="24"></rect>
                    </g>
                </g>
            </g>
        </g>
    </g>
</svg>
